<?xml version="1.0" encoding="utf-8"?>
<svg viewBox="0 0 110 380" width="110" height="380" xmlns="http://www.w3.org/2000/svg">
  <g id="layer1" style="">
    <rect width="110" height="380" style="fill: rgb(187, 237, 187);"/>
  </g>
  <path d="M 31.44 32.2 C 30.347 32.2 29.397 32.027 28.59 31.68 C 27.783 31.333 27.17 30.877 26.75 30.31 C 26.33 29.743 26.107 29.133 26.08 28.48 C 26.08 28.373 26.12 28.28 26.2 28.2 C 26.28 28.12 26.38 28.08 26.5 28.08 L 27.48 28.08 C 27.72 28.08 27.887 28.213 27.98 28.48 C 28.1 29.04 28.443 29.523 29.01 29.93 C 29.577 30.337 30.387 30.54 31.44 30.54 C 32.573 30.54 33.42 30.34 33.98 29.94 C 34.54 29.54 34.82 28.987 34.82 28.28 C 34.82 27.827 34.683 27.453 34.41 27.16 C 34.137 26.867 33.73 26.61 33.19 26.39 C 32.65 26.17 31.84 25.9 30.76 25.58 C 29.733 25.287 28.917 24.973 28.31 24.64 C 27.703 24.307 27.247 23.897 26.94 23.41 C 26.633 22.923 26.48 22.307 26.48 21.56 C 26.48 20.84 26.673 20.197 27.06 19.63 C 27.447 19.063 28.007 18.617 28.74 18.29 C 29.473 17.963 30.34 17.8 31.34 17.8 C 32.38 17.8 33.27 17.983 34.01 18.35 C 34.75 18.717 35.313 19.177 35.7 19.73 C 36.087 20.283 36.293 20.84 36.32 21.4 C 36.32 21.52 36.28 21.62 36.2 21.7 C 36.12 21.78 36.02 21.82 35.9 21.82 L 34.9 21.82 C 34.793 21.82 34.693 21.787 34.6 21.72 C 34.507 21.653 34.44 21.553 34.4 21.42 C 34.32 20.847 34 20.373 33.44 20 C 32.88 19.627 32.18 19.44 31.34 19.44 C 30.433 19.44 29.713 19.617 29.18 19.97 C 28.647 20.323 28.38 20.847 28.38 21.54 C 28.38 22.007 28.503 22.387 28.75 22.68 C 28.997 22.973 29.377 23.233 29.89 23.46 C 30.403 23.687 31.153 23.947 32.14 24.24 C 33.273 24.56 34.163 24.88 34.81 25.2 C 35.457 25.52 35.94 25.917 36.26 26.39 C 36.58 26.863 36.74 27.473 36.74 28.22 C 36.74 29.473 36.263 30.45 35.31 31.15 C 34.357 31.85 33.067 32.2 31.44 32.2 ZM 43.24 32.2 C 41.88 32.2 40.793 31.777 39.98 30.93 C 39.167 30.083 38.72 28.927 38.64 27.46 L 38.62 26.78 L 38.64 26.12 C 38.72 24.68 39.167 23.533 39.98 22.68 C 40.793 21.827 41.88 21.4 43.24 21.4 C 44.707 21.4 45.843 21.867 46.65 22.8 C 47.457 23.733 47.86 25 47.86 26.6 L 47.86 26.96 C 47.86 27.093 47.817 27.203 47.73 27.29 C 47.643 27.377 47.533 27.42 47.4 27.42 L 40.46 27.42 L 40.46 27.6 C 40.5 28.467 40.767 29.207 41.26 29.82 C 41.753 30.433 42.407 30.74 43.22 30.74 C 43.847 30.74 44.357 30.617 44.75 30.37 C 45.143 30.123 45.44 29.867 45.64 29.6 C 45.76 29.44 45.853 29.343 45.92 29.31 C 45.987 29.277 46.1 29.26 46.26 29.26 L 47.14 29.26 C 47.26 29.26 47.363 29.293 47.45 29.36 C 47.537 29.427 47.58 29.513 47.58 29.62 C 47.58 29.913 47.4 30.267 47.04 30.68 C 46.68 31.093 46.17 31.45 45.51 31.75 C 44.85 32.05 44.093 32.2 43.24 32.2 Z M 40.46 26.06 L 46.04 26.06 L 46.04 26 C 46.04 25.067 45.787 24.307 45.28 23.72 C 44.773 23.133 44.093 22.84 43.24 22.84 C 42.373 22.84 41.693 23.133 41.2 23.72 C 40.707 24.307 40.46 25.067 40.46 26 L 40.46 26.06 ZM 53.64 32 C 53.293 32 53.053 31.827 52.92 31.48 L 48.42 18.62 L 48.38 18.4 C 48.38 18.293 48.423 18.2 48.51 18.12 C 48.597 18.04 48.693 18 48.8 18 L 49.76 18 C 49.907 18 50.023 18.037 50.11 18.11 C 50.197 18.183 50.253 18.267 50.28 18.36 L 54.24 29.8 L 58.22 18.36 C 58.247 18.267 58.303 18.183 58.39 18.11 C 58.477 18.037 58.593 18 58.74 18 L 59.7 18 C 59.807 18 59.9 18.04 59.98 18.12 C 60.06 18.2 60.1 18.293 60.1 18.4 C 60.1 18.493 60.093 18.567 60.08 18.62 L 55.58 31.48 C 55.447 31.827 55.207 32 54.86 32 L 53.64 32 ZM 65.36 32.2 C 64 32.2 62.913 31.777 62.1 30.93 C 61.287 30.083 60.84 28.927 60.76 27.46 L 60.74 26.78 L 60.76 26.12 C 60.84 24.68 61.287 23.533 62.1 22.68 C 62.913 21.827 64 21.4 65.36 21.4 C 66.827 21.4 67.963 21.867 68.77 22.8 C 69.577 23.733 69.98 25 69.98 26.6 L 69.98 26.96 C 69.98 27.093 69.937 27.203 69.85 27.29 C 69.763 27.377 69.653 27.42 69.52 27.42 L 62.58 27.42 L 62.58 27.6 C 62.62 28.467 62.887 29.207 63.38 29.82 C 63.873 30.433 64.527 30.74 65.34 30.74 C 65.967 30.74 66.477 30.617 66.87 30.37 C 67.263 30.123 67.56 29.867 67.76 29.6 C 67.88 29.44 67.973 29.343 68.04 29.31 C 68.107 29.277 68.22 29.26 68.38 29.26 L 69.26 29.26 C 69.38 29.26 69.483 29.293 69.57 29.36 C 69.657 29.427 69.7 29.513 69.7 29.62 C 69.7 29.913 69.52 30.267 69.16 30.68 C 68.8 31.093 68.29 31.45 67.63 31.75 C 66.97 32.05 66.213 32.2 65.36 32.2 Z M 62.58 26.06 L 68.16 26.06 L 68.16 26 C 68.16 25.067 67.907 24.307 67.4 23.72 C 66.893 23.133 66.213 22.84 65.36 22.84 C 64.493 22.84 63.813 23.133 63.32 23.72 C 62.827 24.307 62.58 25.067 62.58 26 L 62.58 26.06 ZM 73.12 32 C 72.987 32 72.88 31.957 72.8 31.87 C 72.72 31.783 72.68 31.673 72.68 31.54 L 72.68 18.48 C 72.68 18.333 72.72 18.217 72.8 18.13 C 72.88 18.043 72.987 18 73.12 18 L 74 18 C 74.133 18 74.233 18.027 74.3 18.08 C 74.367 18.133 74.433 18.2 74.5 18.28 L 81.2 28.6 L 81.2 18.48 C 81.2 18.333 81.243 18.217 81.33 18.13 C 81.417 18.043 81.527 18 81.66 18 L 82.56 18 C 82.707 18 82.823 18.043 82.91 18.13 C 82.997 18.217 83.04 18.333 83.04 18.48 L 83.04 31.52 C 83.04 31.653 82.997 31.767 82.91 31.86 C 82.823 31.953 82.713 32 82.58 32 L 81.68 32 C 81.453 32 81.293 31.907 81.2 31.72 L 74.5 21.5 L 74.5 31.54 C 74.5 31.673 74.457 31.783 74.37 31.87 C 74.283 31.957 74.173 32 74.04 32 L 73.12 32 Z" transform="matrix(1, 0, 0, 1, 0, 0)" style="fill: rgb(51, 51, 51); white-space: pre;"/>
  <g id="Ainput" style="">
    <circle style="fill: rgb(0, 0, 0);" cx="17" cy="61" r="10"/>
    <circle style="fill: rgb(216, 0, 216);" cx="57" cy="61" r="14"/>
    <rect x="89" y="51" width="11.5" height="18" style="fill: rgb(0, 0, 0);"/>
    <path d="M 56.935 44 C 56.868 44 56.815 43.977 56.775 43.93 C 56.735 43.89 56.715 43.837 56.715 43.77 L 56.715 38.13 L 55.035 39.42 C 54.988 39.46 54.938 39.48 54.885 39.48 C 54.825 39.48 54.768 39.447 54.715 39.38 L 54.475 39.07 C 54.442 39.023 54.425 38.977 54.425 38.93 C 54.425 38.857 54.458 38.797 54.525 38.75 L 56.695 37.07 C 56.768 37.023 56.855 37 56.955 37 L 57.425 37 C 57.492 37 57.548 37.02 57.595 37.06 C 57.635 37.107 57.655 37.163 57.655 37.23 L 57.655 43.77 C 57.655 43.837 57.635 43.89 57.595 43.93 C 57.548 43.977 57.492 44 57.425 44 L 56.935 44 Z" transform="matrix(1, 0, 0, 1, 0, 0)" style="fill: rgb(51, 51, 51); white-space: pre;"/>
    <path d="M 44.778 80.6 C 43.918 80.6 43.291 80.347 42.898 79.84 C 42.498 79.34 42.285 78.683 42.258 77.87 L 42.248 77.01 L 42.258 76.12 C 42.278 75.313 42.491 74.66 42.898 74.16 C 43.298 73.653 43.925 73.4 44.778 73.4 C 45.638 73.4 46.268 73.653 46.668 74.16 C 47.075 74.66 47.288 75.313 47.308 76.12 C 47.315 76.307 47.318 76.603 47.318 77.01 C 47.318 77.403 47.315 77.69 47.308 77.87 C 47.281 78.683 47.068 79.34 46.668 79.84 C 46.275 80.347 45.645 80.6 44.778 80.6 Z M 44.778 79.77 C 45.291 79.77 45.678 79.6 45.938 79.26 C 46.198 78.92 46.335 78.44 46.348 77.82 C 46.355 77.627 46.358 77.35 46.358 76.99 C 46.358 76.623 46.355 76.35 46.348 76.17 C 46.335 75.557 46.198 75.08 45.938 74.74 C 45.671 74.393 45.285 74.22 44.778 74.22 C 44.271 74.22 43.888 74.393 43.628 74.74 C 43.368 75.08 43.231 75.557 43.218 76.17 L 43.208 76.99 L 43.218 77.82 C 43.231 78.44 43.368 78.92 43.628 79.26 C 43.888 79.6 44.271 79.77 44.778 79.77 Z" transform="matrix(1, 0, 0, 1, 0, 0)" style="fill: rgb(51, 51, 51); white-space: pre;"/>
    <path d="M 67.581 80.5 C 67.514 80.5 67.461 80.477 67.421 80.43 C 67.374 80.39 67.351 80.337 67.351 80.27 L 67.351 79.97 C 67.351 79.817 67.434 79.67 67.601 79.53 L 69.781 77.36 C 70.274 76.94 70.614 76.597 70.801 76.33 C 70.988 76.063 71.081 75.78 71.081 75.48 C 71.081 75.087 70.971 74.777 70.751 74.55 C 70.531 74.33 70.211 74.22 69.791 74.22 C 69.391 74.22 69.074 74.337 68.841 74.57 C 68.608 74.803 68.464 75.117 68.411 75.51 C 68.398 75.583 68.364 75.64 68.311 75.68 C 68.258 75.72 68.204 75.74 68.151 75.74 L 67.671 75.74 C 67.611 75.74 67.561 75.72 67.521 75.68 C 67.481 75.64 67.461 75.593 67.461 75.54 C 67.474 75.187 67.571 74.843 67.751 74.51 C 67.924 74.183 68.184 73.917 68.531 73.71 C 68.878 73.497 69.298 73.39 69.791 73.39 C 70.538 73.39 71.101 73.583 71.481 73.97 C 71.854 74.363 72.041 74.86 72.041 75.46 C 72.041 75.88 71.941 76.257 71.741 76.59 C 71.534 76.93 71.214 77.287 70.781 77.66 L 68.811 79.66 L 71.961 79.66 C 72.034 79.66 72.091 79.68 72.131 79.72 C 72.171 79.76 72.191 79.817 72.191 79.89 L 72.191 80.27 C 72.191 80.337 72.168 80.39 72.121 80.43 C 72.081 80.477 72.028 80.5 71.961 80.5 L 67.581 80.5 Z" transform="matrix(1, 0, 0, 1, 0, 0)" style="fill: rgb(51, 51, 51); white-space: pre;"/>
    <path d="M 93.84 46.694 C 93.773 46.694 93.72 46.671 93.68 46.624 C 93.633 46.584 93.61 46.531 93.61 46.464 L 93.61 44.374 L 91.54 44.374 C 91.473 44.374 91.417 44.354 91.37 44.314 C 91.33 44.267 91.31 44.211 91.31 44.144 L 91.31 43.844 C 91.31 43.777 91.33 43.721 91.37 43.674 C 91.417 43.634 91.473 43.614 91.54 43.614 L 93.61 43.614 L 93.61 41.584 C 93.61 41.511 93.633 41.454 93.68 41.414 C 93.72 41.374 93.773 41.354 93.84 41.354 L 94.16 41.354 C 94.233 41.354 94.29 41.374 94.33 41.414 C 94.37 41.454 94.39 41.511 94.39 41.584 L 94.39 43.614 L 96.46 43.614 C 96.527 43.614 96.583 43.634 96.63 43.674 C 96.67 43.721 96.69 43.777 96.69 43.844 L 96.69 44.144 C 96.69 44.211 96.67 44.267 96.63 44.314 C 96.583 44.354 96.527 44.374 96.46 44.374 L 94.39 44.374 L 94.39 46.464 C 94.39 46.531 94.37 46.584 94.33 46.624 C 94.283 46.671 94.227 46.694 94.16 46.694 L 93.84 46.694 Z" transform="matrix(1, 0, 0, 1, 0, 0)" style="fill: rgb(51, 51, 51); white-space: pre;"/>
    <path d="M 92.5 75.4 C 92.433 75.4 92.38 75.38 92.34 75.34 C 92.293 75.3 92.27 75.247 92.27 75.18 L 92.27 74.82 C 92.27 74.753 92.293 74.697 92.34 74.65 C 92.38 74.61 92.433 74.59 92.5 74.59 L 95.5 74.59 C 95.567 74.59 95.62 74.61 95.66 74.65 C 95.707 74.697 95.73 74.753 95.73 74.82 L 95.73 75.18 C 95.73 75.247 95.707 75.3 95.66 75.34 C 95.62 75.38 95.567 75.4 95.5 75.4 L 92.5 75.4 Z" transform="matrix(1, 0, 0, 1, 0, 0)" style="fill: rgb(51, 51, 51); white-space: pre;"/>
  </g>
  <g id="Binput" style="" transform="matrix(1, 0, 0, 1, 0, 42.700001)">
    <circle style="fill: rgb(0, 0, 0);" cx="17" cy="61" r="10"/>
    <circle style="fill: rgb(216, 0, 216);" cx="57" cy="61" r="14"/>
    <rect x="89" y="51" width="11.5" height="18" style="fill: rgb(0, 0, 0);"/>
    <path d="M 56.935 44 C 56.868 44 56.815 43.977 56.775 43.93 C 56.735 43.89 56.715 43.837 56.715 43.77 L 56.715 38.13 L 55.035 39.42 C 54.988 39.46 54.938 39.48 54.885 39.48 C 54.825 39.48 54.768 39.447 54.715 39.38 L 54.475 39.07 C 54.442 39.023 54.425 38.977 54.425 38.93 C 54.425 38.857 54.458 38.797 54.525 38.75 L 56.695 37.07 C 56.768 37.023 56.855 37 56.955 37 L 57.425 37 C 57.492 37 57.548 37.02 57.595 37.06 C 57.635 37.107 57.655 37.163 57.655 37.23 L 57.655 43.77 C 57.655 43.837 57.635 43.89 57.595 43.93 C 57.548 43.977 57.492 44 57.425 44 L 56.935 44 Z" transform="matrix(1, 0, 0, 1, 0, 0)" style="fill: rgb(51, 51, 51); white-space: pre;"/>
    <path d="M 44.778 80.6 C 43.918 80.6 43.291 80.347 42.898 79.84 C 42.498 79.34 42.285 78.683 42.258 77.87 L 42.248 77.01 L 42.258 76.12 C 42.278 75.313 42.491 74.66 42.898 74.16 C 43.298 73.653 43.925 73.4 44.778 73.4 C 45.638 73.4 46.268 73.653 46.668 74.16 C 47.075 74.66 47.288 75.313 47.308 76.12 C 47.315 76.307 47.318 76.603 47.318 77.01 C 47.318 77.403 47.315 77.69 47.308 77.87 C 47.281 78.683 47.068 79.34 46.668 79.84 C 46.275 80.347 45.645 80.6 44.778 80.6 Z M 44.778 79.77 C 45.291 79.77 45.678 79.6 45.938 79.26 C 46.198 78.92 46.335 78.44 46.348 77.82 C 46.355 77.627 46.358 77.35 46.358 76.99 C 46.358 76.623 46.355 76.35 46.348 76.17 C 46.335 75.557 46.198 75.08 45.938 74.74 C 45.671 74.393 45.285 74.22 44.778 74.22 C 44.271 74.22 43.888 74.393 43.628 74.74 C 43.368 75.08 43.231 75.557 43.218 76.17 L 43.208 76.99 L 43.218 77.82 C 43.231 78.44 43.368 78.92 43.628 79.26 C 43.888 79.6 44.271 79.77 44.778 79.77 Z" transform="matrix(1, 0, 0, 1, 0, 0)" style="fill: rgb(51, 51, 51); white-space: pre;"/>
    <path d="M 67.581 80.5 C 67.514 80.5 67.461 80.477 67.421 80.43 C 67.374 80.39 67.351 80.337 67.351 80.27 L 67.351 79.97 C 67.351 79.817 67.434 79.67 67.601 79.53 L 69.781 77.36 C 70.274 76.94 70.614 76.597 70.801 76.33 C 70.988 76.063 71.081 75.78 71.081 75.48 C 71.081 75.087 70.971 74.777 70.751 74.55 C 70.531 74.33 70.211 74.22 69.791 74.22 C 69.391 74.22 69.074 74.337 68.841 74.57 C 68.608 74.803 68.464 75.117 68.411 75.51 C 68.398 75.583 68.364 75.64 68.311 75.68 C 68.258 75.72 68.204 75.74 68.151 75.74 L 67.671 75.74 C 67.611 75.74 67.561 75.72 67.521 75.68 C 67.481 75.64 67.461 75.593 67.461 75.54 C 67.474 75.187 67.571 74.843 67.751 74.51 C 67.924 74.183 68.184 73.917 68.531 73.71 C 68.878 73.497 69.298 73.39 69.791 73.39 C 70.538 73.39 71.101 73.583 71.481 73.97 C 71.854 74.363 72.041 74.86 72.041 75.46 C 72.041 75.88 71.941 76.257 71.741 76.59 C 71.534 76.93 71.214 77.287 70.781 77.66 L 68.811 79.66 L 71.961 79.66 C 72.034 79.66 72.091 79.68 72.131 79.72 C 72.171 79.76 72.191 79.817 72.191 79.89 L 72.191 80.27 C 72.191 80.337 72.168 80.39 72.121 80.43 C 72.081 80.477 72.028 80.5 71.961 80.5 L 67.581 80.5 Z" transform="matrix(1, 0, 0, 1, 0, 0)" style="fill: rgb(51, 51, 51); white-space: pre;"/>
    <path d="M 93.84 46.694 C 93.773 46.694 93.72 46.671 93.68 46.624 C 93.633 46.584 93.61 46.531 93.61 46.464 L 93.61 44.374 L 91.54 44.374 C 91.473 44.374 91.417 44.354 91.37 44.314 C 91.33 44.267 91.31 44.211 91.31 44.144 L 91.31 43.844 C 91.31 43.777 91.33 43.721 91.37 43.674 C 91.417 43.634 91.473 43.614 91.54 43.614 L 93.61 43.614 L 93.61 41.584 C 93.61 41.511 93.633 41.454 93.68 41.414 C 93.72 41.374 93.773 41.354 93.84 41.354 L 94.16 41.354 C 94.233 41.354 94.29 41.374 94.33 41.414 C 94.37 41.454 94.39 41.511 94.39 41.584 L 94.39 43.614 L 96.46 43.614 C 96.527 43.614 96.583 43.634 96.63 43.674 C 96.67 43.721 96.69 43.777 96.69 43.844 L 96.69 44.144 C 96.69 44.211 96.67 44.267 96.63 44.314 C 96.583 44.354 96.527 44.374 96.46 44.374 L 94.39 44.374 L 94.39 46.464 C 94.39 46.531 94.37 46.584 94.33 46.624 C 94.283 46.671 94.227 46.694 94.16 46.694 L 93.84 46.694 Z" transform="matrix(1, 0, 0, 1, 0, 0)" style="fill: rgb(51, 51, 51); white-space: pre;"/>
    <path d="M 92.5 75.4 C 92.433 75.4 92.38 75.38 92.34 75.34 C 92.293 75.3 92.27 75.247 92.27 75.18 L 92.27 74.82 C 92.27 74.753 92.293 74.697 92.34 74.65 C 92.38 74.61 92.433 74.59 92.5 74.59 L 95.5 74.59 C 95.567 74.59 95.62 74.61 95.66 74.65 C 95.707 74.697 95.73 74.753 95.73 74.82 L 95.73 75.18 C 95.73 75.247 95.707 75.3 95.66 75.34 C 95.62 75.38 95.567 75.4 95.5 75.4 L 92.5 75.4 Z" transform="matrix(1, 0, 0, 1, 0, 0)" style="fill: rgb(51, 51, 51); white-space: pre;"/>
  </g>
  <g id="Cinput" style="" transform="matrix(1, 0, 0, 1, 0, 85.800003)">
    <circle style="fill: rgb(0, 0, 0);" cx="17" cy="61" r="10"/>
    <circle style="fill: rgb(216, 0, 216);" cx="57" cy="61" r="14"/>
    <rect x="89" y="51" width="11.5" height="18" style="fill: rgb(0, 0, 0);"/>
    <path d="M 56.935 44 C 56.868 44 56.815 43.977 56.775 43.93 C 56.735 43.89 56.715 43.837 56.715 43.77 L 56.715 38.13 L 55.035 39.42 C 54.988 39.46 54.938 39.48 54.885 39.48 C 54.825 39.48 54.768 39.447 54.715 39.38 L 54.475 39.07 C 54.442 39.023 54.425 38.977 54.425 38.93 C 54.425 38.857 54.458 38.797 54.525 38.75 L 56.695 37.07 C 56.768 37.023 56.855 37 56.955 37 L 57.425 37 C 57.492 37 57.548 37.02 57.595 37.06 C 57.635 37.107 57.655 37.163 57.655 37.23 L 57.655 43.77 C 57.655 43.837 57.635 43.89 57.595 43.93 C 57.548 43.977 57.492 44 57.425 44 L 56.935 44 Z" transform="matrix(1, 0, 0, 1, 0, 0)" style="fill: rgb(51, 51, 51); white-space: pre;"/>
    <path d="M 44.778 80.6 C 43.918 80.6 43.291 80.347 42.898 79.84 C 42.498 79.34 42.285 78.683 42.258 77.87 L 42.248 77.01 L 42.258 76.12 C 42.278 75.313 42.491 74.66 42.898 74.16 C 43.298 73.653 43.925 73.4 44.778 73.4 C 45.638 73.4 46.268 73.653 46.668 74.16 C 47.075 74.66 47.288 75.313 47.308 76.12 C 47.315 76.307 47.318 76.603 47.318 77.01 C 47.318 77.403 47.315 77.69 47.308 77.87 C 47.281 78.683 47.068 79.34 46.668 79.84 C 46.275 80.347 45.645 80.6 44.778 80.6 Z M 44.778 79.77 C 45.291 79.77 45.678 79.6 45.938 79.26 C 46.198 78.92 46.335 78.44 46.348 77.82 C 46.355 77.627 46.358 77.35 46.358 76.99 C 46.358 76.623 46.355 76.35 46.348 76.17 C 46.335 75.557 46.198 75.08 45.938 74.74 C 45.671 74.393 45.285 74.22 44.778 74.22 C 44.271 74.22 43.888 74.393 43.628 74.74 C 43.368 75.08 43.231 75.557 43.218 76.17 L 43.208 76.99 L 43.218 77.82 C 43.231 78.44 43.368 78.92 43.628 79.26 C 43.888 79.6 44.271 79.77 44.778 79.77 Z" transform="matrix(1, 0, 0, 1, 0, 0)" style="fill: rgb(51, 51, 51); white-space: pre;"/>
    <path d="M 67.581 80.5 C 67.514 80.5 67.461 80.477 67.421 80.43 C 67.374 80.39 67.351 80.337 67.351 80.27 L 67.351 79.97 C 67.351 79.817 67.434 79.67 67.601 79.53 L 69.781 77.36 C 70.274 76.94 70.614 76.597 70.801 76.33 C 70.988 76.063 71.081 75.78 71.081 75.48 C 71.081 75.087 70.971 74.777 70.751 74.55 C 70.531 74.33 70.211 74.22 69.791 74.22 C 69.391 74.22 69.074 74.337 68.841 74.57 C 68.608 74.803 68.464 75.117 68.411 75.51 C 68.398 75.583 68.364 75.64 68.311 75.68 C 68.258 75.72 68.204 75.74 68.151 75.74 L 67.671 75.74 C 67.611 75.74 67.561 75.72 67.521 75.68 C 67.481 75.64 67.461 75.593 67.461 75.54 C 67.474 75.187 67.571 74.843 67.751 74.51 C 67.924 74.183 68.184 73.917 68.531 73.71 C 68.878 73.497 69.298 73.39 69.791 73.39 C 70.538 73.39 71.101 73.583 71.481 73.97 C 71.854 74.363 72.041 74.86 72.041 75.46 C 72.041 75.88 71.941 76.257 71.741 76.59 C 71.534 76.93 71.214 77.287 70.781 77.66 L 68.811 79.66 L 71.961 79.66 C 72.034 79.66 72.091 79.68 72.131 79.72 C 72.171 79.76 72.191 79.817 72.191 79.89 L 72.191 80.27 C 72.191 80.337 72.168 80.39 72.121 80.43 C 72.081 80.477 72.028 80.5 71.961 80.5 L 67.581 80.5 Z" transform="matrix(1, 0, 0, 1, 0, 0)" style="fill: rgb(51, 51, 51); white-space: pre;"/>
    <path d="M 93.84 46.694 C 93.773 46.694 93.72 46.671 93.68 46.624 C 93.633 46.584 93.61 46.531 93.61 46.464 L 93.61 44.374 L 91.54 44.374 C 91.473 44.374 91.417 44.354 91.37 44.314 C 91.33 44.267 91.31 44.211 91.31 44.144 L 91.31 43.844 C 91.31 43.777 91.33 43.721 91.37 43.674 C 91.417 43.634 91.473 43.614 91.54 43.614 L 93.61 43.614 L 93.61 41.584 C 93.61 41.511 93.633 41.454 93.68 41.414 C 93.72 41.374 93.773 41.354 93.84 41.354 L 94.16 41.354 C 94.233 41.354 94.29 41.374 94.33 41.414 C 94.37 41.454 94.39 41.511 94.39 41.584 L 94.39 43.614 L 96.46 43.614 C 96.527 43.614 96.583 43.634 96.63 43.674 C 96.67 43.721 96.69 43.777 96.69 43.844 L 96.69 44.144 C 96.69 44.211 96.67 44.267 96.63 44.314 C 96.583 44.354 96.527 44.374 96.46 44.374 L 94.39 44.374 L 94.39 46.464 C 94.39 46.531 94.37 46.584 94.33 46.624 C 94.283 46.671 94.227 46.694 94.16 46.694 L 93.84 46.694 Z" transform="matrix(1, 0, 0, 1, 0, 0)" style="fill: rgb(51, 51, 51); white-space: pre;"/>
    <path d="M 92.5 75.4 C 92.433 75.4 92.38 75.38 92.34 75.34 C 92.293 75.3 92.27 75.247 92.27 75.18 L 92.27 74.82 C 92.27 74.753 92.293 74.697 92.34 74.65 C 92.38 74.61 92.433 74.59 92.5 74.59 L 95.5 74.59 C 95.567 74.59 95.62 74.61 95.66 74.65 C 95.707 74.697 95.73 74.753 95.73 74.82 L 95.73 75.18 C 95.73 75.247 95.707 75.3 95.66 75.34 C 95.62 75.38 95.567 75.4 95.5 75.4 L 92.5 75.4 Z" transform="matrix(1, 0, 0, 1, 0, 0)" style="fill: rgb(51, 51, 51); white-space: pre;"/>
  </g>
  <g id="Dinput" style="" transform="matrix(1, 0, 0, 1, 0, 128.699997)">
    <circle style="fill: rgb(0, 0, 0);" cx="17" cy="61" r="10"/>
    <circle style="fill: rgb(216, 0, 216);" cx="57" cy="61" r="14"/>
    <rect x="89" y="51" width="11.5" height="18" style="fill: rgb(0, 0, 0);"/>
    <path d="M 56.935 44 C 56.868 44 56.815 43.977 56.775 43.93 C 56.735 43.89 56.715 43.837 56.715 43.77 L 56.715 38.13 L 55.035 39.42 C 54.988 39.46 54.938 39.48 54.885 39.48 C 54.825 39.48 54.768 39.447 54.715 39.38 L 54.475 39.07 C 54.442 39.023 54.425 38.977 54.425 38.93 C 54.425 38.857 54.458 38.797 54.525 38.75 L 56.695 37.07 C 56.768 37.023 56.855 37 56.955 37 L 57.425 37 C 57.492 37 57.548 37.02 57.595 37.06 C 57.635 37.107 57.655 37.163 57.655 37.23 L 57.655 43.77 C 57.655 43.837 57.635 43.89 57.595 43.93 C 57.548 43.977 57.492 44 57.425 44 L 56.935 44 Z" transform="matrix(1, 0, 0, 1, 0, 0)" style="fill: rgb(51, 51, 51); white-space: pre;"/>
    <path d="M 44.778 80.6 C 43.918 80.6 43.291 80.347 42.898 79.84 C 42.498 79.34 42.285 78.683 42.258 77.87 L 42.248 77.01 L 42.258 76.12 C 42.278 75.313 42.491 74.66 42.898 74.16 C 43.298 73.653 43.925 73.4 44.778 73.4 C 45.638 73.4 46.268 73.653 46.668 74.16 C 47.075 74.66 47.288 75.313 47.308 76.12 C 47.315 76.307 47.318 76.603 47.318 77.01 C 47.318 77.403 47.315 77.69 47.308 77.87 C 47.281 78.683 47.068 79.34 46.668 79.84 C 46.275 80.347 45.645 80.6 44.778 80.6 Z M 44.778 79.77 C 45.291 79.77 45.678 79.6 45.938 79.26 C 46.198 78.92 46.335 78.44 46.348 77.82 C 46.355 77.627 46.358 77.35 46.358 76.99 C 46.358 76.623 46.355 76.35 46.348 76.17 C 46.335 75.557 46.198 75.08 45.938 74.74 C 45.671 74.393 45.285 74.22 44.778 74.22 C 44.271 74.22 43.888 74.393 43.628 74.74 C 43.368 75.08 43.231 75.557 43.218 76.17 L 43.208 76.99 L 43.218 77.82 C 43.231 78.44 43.368 78.92 43.628 79.26 C 43.888 79.6 44.271 79.77 44.778 79.77 Z" transform="matrix(1, 0, 0, 1, 0, 0)" style="fill: rgb(51, 51, 51); white-space: pre;"/>
    <path d="M 67.581 80.5 C 67.514 80.5 67.461 80.477 67.421 80.43 C 67.374 80.39 67.351 80.337 67.351 80.27 L 67.351 79.97 C 67.351 79.817 67.434 79.67 67.601 79.53 L 69.781 77.36 C 70.274 76.94 70.614 76.597 70.801 76.33 C 70.988 76.063 71.081 75.78 71.081 75.48 C 71.081 75.087 70.971 74.777 70.751 74.55 C 70.531 74.33 70.211 74.22 69.791 74.22 C 69.391 74.22 69.074 74.337 68.841 74.57 C 68.608 74.803 68.464 75.117 68.411 75.51 C 68.398 75.583 68.364 75.64 68.311 75.68 C 68.258 75.72 68.204 75.74 68.151 75.74 L 67.671 75.74 C 67.611 75.74 67.561 75.72 67.521 75.68 C 67.481 75.64 67.461 75.593 67.461 75.54 C 67.474 75.187 67.571 74.843 67.751 74.51 C 67.924 74.183 68.184 73.917 68.531 73.71 C 68.878 73.497 69.298 73.39 69.791 73.39 C 70.538 73.39 71.101 73.583 71.481 73.97 C 71.854 74.363 72.041 74.86 72.041 75.46 C 72.041 75.88 71.941 76.257 71.741 76.59 C 71.534 76.93 71.214 77.287 70.781 77.66 L 68.811 79.66 L 71.961 79.66 C 72.034 79.66 72.091 79.68 72.131 79.72 C 72.171 79.76 72.191 79.817 72.191 79.89 L 72.191 80.27 C 72.191 80.337 72.168 80.39 72.121 80.43 C 72.081 80.477 72.028 80.5 71.961 80.5 L 67.581 80.5 Z" transform="matrix(1, 0, 0, 1, 0, 0)" style="fill: rgb(51, 51, 51); white-space: pre;"/>
    <path d="M 93.84 46.694 C 93.773 46.694 93.72 46.671 93.68 46.624 C 93.633 46.584 93.61 46.531 93.61 46.464 L 93.61 44.374 L 91.54 44.374 C 91.473 44.374 91.417 44.354 91.37 44.314 C 91.33 44.267 91.31 44.211 91.31 44.144 L 91.31 43.844 C 91.31 43.777 91.33 43.721 91.37 43.674 C 91.417 43.634 91.473 43.614 91.54 43.614 L 93.61 43.614 L 93.61 41.584 C 93.61 41.511 93.633 41.454 93.68 41.414 C 93.72 41.374 93.773 41.354 93.84 41.354 L 94.16 41.354 C 94.233 41.354 94.29 41.374 94.33 41.414 C 94.37 41.454 94.39 41.511 94.39 41.584 L 94.39 43.614 L 96.46 43.614 C 96.527 43.614 96.583 43.634 96.63 43.674 C 96.67 43.721 96.69 43.777 96.69 43.844 L 96.69 44.144 C 96.69 44.211 96.67 44.267 96.63 44.314 C 96.583 44.354 96.527 44.374 96.46 44.374 L 94.39 44.374 L 94.39 46.464 C 94.39 46.531 94.37 46.584 94.33 46.624 C 94.283 46.671 94.227 46.694 94.16 46.694 L 93.84 46.694 Z" transform="matrix(1, 0, 0, 1, 0, 0)" style="fill: rgb(51, 51, 51); white-space: pre;"/>
    <path d="M 92.5 75.4 C 92.433 75.4 92.38 75.38 92.34 75.34 C 92.293 75.3 92.27 75.247 92.27 75.18 L 92.27 74.82 C 92.27 74.753 92.293 74.697 92.34 74.65 C 92.38 74.61 92.433 74.59 92.5 74.59 L 95.5 74.59 C 95.567 74.59 95.62 74.61 95.66 74.65 C 95.707 74.697 95.73 74.753 95.73 74.82 L 95.73 75.18 C 95.73 75.247 95.707 75.3 95.66 75.34 C 95.62 75.38 95.567 75.4 95.5 75.4 L 92.5 75.4 Z" transform="matrix(1, 0, 0, 1, 0, 0)" style="fill: rgb(51, 51, 51); white-space: pre;"/>
  </g>
  <g id="Einput" style="" transform="matrix(1, 0, 0, 1, 0, 171.600006)">
    <circle style="fill: rgb(0, 0, 0);" cx="17" cy="61" r="10"/>
    <circle style="fill: rgb(216, 0, 216);" cx="57" cy="61" r="14"/>
    <rect x="89" y="51" width="11.5" height="18" style="fill: rgb(0, 0, 0);"/>
    <path d="M 56.935 44 C 56.868 44 56.815 43.977 56.775 43.93 C 56.735 43.89 56.715 43.837 56.715 43.77 L 56.715 38.13 L 55.035 39.42 C 54.988 39.46 54.938 39.48 54.885 39.48 C 54.825 39.48 54.768 39.447 54.715 39.38 L 54.475 39.07 C 54.442 39.023 54.425 38.977 54.425 38.93 C 54.425 38.857 54.458 38.797 54.525 38.75 L 56.695 37.07 C 56.768 37.023 56.855 37 56.955 37 L 57.425 37 C 57.492 37 57.548 37.02 57.595 37.06 C 57.635 37.107 57.655 37.163 57.655 37.23 L 57.655 43.77 C 57.655 43.837 57.635 43.89 57.595 43.93 C 57.548 43.977 57.492 44 57.425 44 L 56.935 44 Z" transform="matrix(1, 0, 0, 1, 0, 0)" style="fill: rgb(51, 51, 51); white-space: pre;"/>
    <path d="M 44.778 80.6 C 43.918 80.6 43.291 80.347 42.898 79.84 C 42.498 79.34 42.285 78.683 42.258 77.87 L 42.248 77.01 L 42.258 76.12 C 42.278 75.313 42.491 74.66 42.898 74.16 C 43.298 73.653 43.925 73.4 44.778 73.4 C 45.638 73.4 46.268 73.653 46.668 74.16 C 47.075 74.66 47.288 75.313 47.308 76.12 C 47.315 76.307 47.318 76.603 47.318 77.01 C 47.318 77.403 47.315 77.69 47.308 77.87 C 47.281 78.683 47.068 79.34 46.668 79.84 C 46.275 80.347 45.645 80.6 44.778 80.6 Z M 44.778 79.77 C 45.291 79.77 45.678 79.6 45.938 79.26 C 46.198 78.92 46.335 78.44 46.348 77.82 C 46.355 77.627 46.358 77.35 46.358 76.99 C 46.358 76.623 46.355 76.35 46.348 76.17 C 46.335 75.557 46.198 75.08 45.938 74.74 C 45.671 74.393 45.285 74.22 44.778 74.22 C 44.271 74.22 43.888 74.393 43.628 74.74 C 43.368 75.08 43.231 75.557 43.218 76.17 L 43.208 76.99 L 43.218 77.82 C 43.231 78.44 43.368 78.92 43.628 79.26 C 43.888 79.6 44.271 79.77 44.778 79.77 Z" transform="matrix(1, 0, 0, 1, 0, 0)" style="fill: rgb(51, 51, 51); white-space: pre;"/>
    <path d="M 67.581 80.5 C 67.514 80.5 67.461 80.477 67.421 80.43 C 67.374 80.39 67.351 80.337 67.351 80.27 L 67.351 79.97 C 67.351 79.817 67.434 79.67 67.601 79.53 L 69.781 77.36 C 70.274 76.94 70.614 76.597 70.801 76.33 C 70.988 76.063 71.081 75.78 71.081 75.48 C 71.081 75.087 70.971 74.777 70.751 74.55 C 70.531 74.33 70.211 74.22 69.791 74.22 C 69.391 74.22 69.074 74.337 68.841 74.57 C 68.608 74.803 68.464 75.117 68.411 75.51 C 68.398 75.583 68.364 75.64 68.311 75.68 C 68.258 75.72 68.204 75.74 68.151 75.74 L 67.671 75.74 C 67.611 75.74 67.561 75.72 67.521 75.68 C 67.481 75.64 67.461 75.593 67.461 75.54 C 67.474 75.187 67.571 74.843 67.751 74.51 C 67.924 74.183 68.184 73.917 68.531 73.71 C 68.878 73.497 69.298 73.39 69.791 73.39 C 70.538 73.39 71.101 73.583 71.481 73.97 C 71.854 74.363 72.041 74.86 72.041 75.46 C 72.041 75.88 71.941 76.257 71.741 76.59 C 71.534 76.93 71.214 77.287 70.781 77.66 L 68.811 79.66 L 71.961 79.66 C 72.034 79.66 72.091 79.68 72.131 79.72 C 72.171 79.76 72.191 79.817 72.191 79.89 L 72.191 80.27 C 72.191 80.337 72.168 80.39 72.121 80.43 C 72.081 80.477 72.028 80.5 71.961 80.5 L 67.581 80.5 Z" transform="matrix(1, 0, 0, 1, 0, 0)" style="fill: rgb(51, 51, 51); white-space: pre;"/>
    <path d="M 93.84 46.694 C 93.773 46.694 93.72 46.671 93.68 46.624 C 93.633 46.584 93.61 46.531 93.61 46.464 L 93.61 44.374 L 91.54 44.374 C 91.473 44.374 91.417 44.354 91.37 44.314 C 91.33 44.267 91.31 44.211 91.31 44.144 L 91.31 43.844 C 91.31 43.777 91.33 43.721 91.37 43.674 C 91.417 43.634 91.473 43.614 91.54 43.614 L 93.61 43.614 L 93.61 41.584 C 93.61 41.511 93.633 41.454 93.68 41.414 C 93.72 41.374 93.773 41.354 93.84 41.354 L 94.16 41.354 C 94.233 41.354 94.29 41.374 94.33 41.414 C 94.37 41.454 94.39 41.511 94.39 41.584 L 94.39 43.614 L 96.46 43.614 C 96.527 43.614 96.583 43.634 96.63 43.674 C 96.67 43.721 96.69 43.777 96.69 43.844 L 96.69 44.144 C 96.69 44.211 96.67 44.267 96.63 44.314 C 96.583 44.354 96.527 44.374 96.46 44.374 L 94.39 44.374 L 94.39 46.464 C 94.39 46.531 94.37 46.584 94.33 46.624 C 94.283 46.671 94.227 46.694 94.16 46.694 L 93.84 46.694 Z" transform="matrix(1, 0, 0, 1, 0, 0)" style="fill: rgb(51, 51, 51); white-space: pre;"/>
    <path d="M 92.5 75.4 C 92.433 75.4 92.38 75.38 92.34 75.34 C 92.293 75.3 92.27 75.247 92.27 75.18 L 92.27 74.82 C 92.27 74.753 92.293 74.697 92.34 74.65 C 92.38 74.61 92.433 74.59 92.5 74.59 L 95.5 74.59 C 95.567 74.59 95.62 74.61 95.66 74.65 C 95.707 74.697 95.73 74.753 95.73 74.82 L 95.73 75.18 C 95.73 75.247 95.707 75.3 95.66 75.34 C 95.62 75.38 95.567 75.4 95.5 75.4 L 92.5 75.4 Z" transform="matrix(1, 0, 0, 1, 0, 0)" style="fill: rgb(51, 51, 51); white-space: pre;"/>
  </g>
  <g id="Finput" style="" transform="matrix(1, 0, 0, 1, 0, 214.5)">
    <circle style="fill: rgb(0, 0, 0);" cx="17" cy="61" r="10"/>
    <circle style="fill: rgb(216, 0, 216);" cx="57" cy="61" r="14"/>
    <rect x="89" y="51" width="11.5" height="18" style="fill: rgb(0, 0, 0);"/>
    <path d="M 56.935 44 C 56.868 44 56.815 43.977 56.775 43.93 C 56.735 43.89 56.715 43.837 56.715 43.77 L 56.715 38.13 L 55.035 39.42 C 54.988 39.46 54.938 39.48 54.885 39.48 C 54.825 39.48 54.768 39.447 54.715 39.38 L 54.475 39.07 C 54.442 39.023 54.425 38.977 54.425 38.93 C 54.425 38.857 54.458 38.797 54.525 38.75 L 56.695 37.07 C 56.768 37.023 56.855 37 56.955 37 L 57.425 37 C 57.492 37 57.548 37.02 57.595 37.06 C 57.635 37.107 57.655 37.163 57.655 37.23 L 57.655 43.77 C 57.655 43.837 57.635 43.89 57.595 43.93 C 57.548 43.977 57.492 44 57.425 44 L 56.935 44 Z" transform="matrix(1, 0, 0, 1, 0, 0)" style="fill: rgb(51, 51, 51); white-space: pre;"/>
    <path d="M 44.778 80.6 C 43.918 80.6 43.291 80.347 42.898 79.84 C 42.498 79.34 42.285 78.683 42.258 77.87 L 42.248 77.01 L 42.258 76.12 C 42.278 75.313 42.491 74.66 42.898 74.16 C 43.298 73.653 43.925 73.4 44.778 73.4 C 45.638 73.4 46.268 73.653 46.668 74.16 C 47.075 74.66 47.288 75.313 47.308 76.12 C 47.315 76.307 47.318 76.603 47.318 77.01 C 47.318 77.403 47.315 77.69 47.308 77.87 C 47.281 78.683 47.068 79.34 46.668 79.84 C 46.275 80.347 45.645 80.6 44.778 80.6 Z M 44.778 79.77 C 45.291 79.77 45.678 79.6 45.938 79.26 C 46.198 78.92 46.335 78.44 46.348 77.82 C 46.355 77.627 46.358 77.35 46.358 76.99 C 46.358 76.623 46.355 76.35 46.348 76.17 C 46.335 75.557 46.198 75.08 45.938 74.74 C 45.671 74.393 45.285 74.22 44.778 74.22 C 44.271 74.22 43.888 74.393 43.628 74.74 C 43.368 75.08 43.231 75.557 43.218 76.17 L 43.208 76.99 L 43.218 77.82 C 43.231 78.44 43.368 78.92 43.628 79.26 C 43.888 79.6 44.271 79.77 44.778 79.77 Z" transform="matrix(1, 0, 0, 1, 0, 0)" style="fill: rgb(51, 51, 51); white-space: pre;"/>
    <path d="M 67.581 80.5 C 67.514 80.5 67.461 80.477 67.421 80.43 C 67.374 80.39 67.351 80.337 67.351 80.27 L 67.351 79.97 C 67.351 79.817 67.434 79.67 67.601 79.53 L 69.781 77.36 C 70.274 76.94 70.614 76.597 70.801 76.33 C 70.988 76.063 71.081 75.78 71.081 75.48 C 71.081 75.087 70.971 74.777 70.751 74.55 C 70.531 74.33 70.211 74.22 69.791 74.22 C 69.391 74.22 69.074 74.337 68.841 74.57 C 68.608 74.803 68.464 75.117 68.411 75.51 C 68.398 75.583 68.364 75.64 68.311 75.68 C 68.258 75.72 68.204 75.74 68.151 75.74 L 67.671 75.74 C 67.611 75.74 67.561 75.72 67.521 75.68 C 67.481 75.64 67.461 75.593 67.461 75.54 C 67.474 75.187 67.571 74.843 67.751 74.51 C 67.924 74.183 68.184 73.917 68.531 73.71 C 68.878 73.497 69.298 73.39 69.791 73.39 C 70.538 73.39 71.101 73.583 71.481 73.97 C 71.854 74.363 72.041 74.86 72.041 75.46 C 72.041 75.88 71.941 76.257 71.741 76.59 C 71.534 76.93 71.214 77.287 70.781 77.66 L 68.811 79.66 L 71.961 79.66 C 72.034 79.66 72.091 79.68 72.131 79.72 C 72.171 79.76 72.191 79.817 72.191 79.89 L 72.191 80.27 C 72.191 80.337 72.168 80.39 72.121 80.43 C 72.081 80.477 72.028 80.5 71.961 80.5 L 67.581 80.5 Z" transform="matrix(1, 0, 0, 1, 0, 0)" style="fill: rgb(51, 51, 51); white-space: pre;"/>
    <path d="M 93.84 46.694 C 93.773 46.694 93.72 46.671 93.68 46.624 C 93.633 46.584 93.61 46.531 93.61 46.464 L 93.61 44.374 L 91.54 44.374 C 91.473 44.374 91.417 44.354 91.37 44.314 C 91.33 44.267 91.31 44.211 91.31 44.144 L 91.31 43.844 C 91.31 43.777 91.33 43.721 91.37 43.674 C 91.417 43.634 91.473 43.614 91.54 43.614 L 93.61 43.614 L 93.61 41.584 C 93.61 41.511 93.633 41.454 93.68 41.414 C 93.72 41.374 93.773 41.354 93.84 41.354 L 94.16 41.354 C 94.233 41.354 94.29 41.374 94.33 41.414 C 94.37 41.454 94.39 41.511 94.39 41.584 L 94.39 43.614 L 96.46 43.614 C 96.527 43.614 96.583 43.634 96.63 43.674 C 96.67 43.721 96.69 43.777 96.69 43.844 L 96.69 44.144 C 96.69 44.211 96.67 44.267 96.63 44.314 C 96.583 44.354 96.527 44.374 96.46 44.374 L 94.39 44.374 L 94.39 46.464 C 94.39 46.531 94.37 46.584 94.33 46.624 C 94.283 46.671 94.227 46.694 94.16 46.694 L 93.84 46.694 Z" transform="matrix(1, 0, 0, 1, 0, 0)" style="fill: rgb(51, 51, 51); white-space: pre;"/>
    <path d="M 92.5 75.4 C 92.433 75.4 92.38 75.38 92.34 75.34 C 92.293 75.3 92.27 75.247 92.27 75.18 L 92.27 74.82 C 92.27 74.753 92.293 74.697 92.34 74.65 C 92.38 74.61 92.433 74.59 92.5 74.59 L 95.5 74.59 C 95.567 74.59 95.62 74.61 95.66 74.65 C 95.707 74.697 95.73 74.753 95.73 74.82 L 95.73 75.18 C 95.73 75.247 95.707 75.3 95.66 75.34 C 95.62 75.38 95.567 75.4 95.5 75.4 L 92.5 75.4 Z" transform="matrix(1, 0, 0, 1, 0, 0)" style="fill: rgb(51, 51, 51); white-space: pre;"/>
  </g>
  <g id="Ginput" style="" transform="matrix(1, 0, 0, 1, 0, 257.399994)">
    <circle style="fill: rgb(0, 0, 0);" cx="17" cy="61" r="10"/>
    <circle style="fill: rgb(216, 0, 216);" cx="57" cy="61" r="14"/>
    <rect x="89" y="51" width="11.5" height="18" style="fill: rgb(0, 0, 0);"/>
    <path d="M 56.935 44 C 56.868 44 56.815 43.977 56.775 43.93 C 56.735 43.89 56.715 43.837 56.715 43.77 L 56.715 38.13 L 55.035 39.42 C 54.988 39.46 54.938 39.48 54.885 39.48 C 54.825 39.48 54.768 39.447 54.715 39.38 L 54.475 39.07 C 54.442 39.023 54.425 38.977 54.425 38.93 C 54.425 38.857 54.458 38.797 54.525 38.75 L 56.695 37.07 C 56.768 37.023 56.855 37 56.955 37 L 57.425 37 C 57.492 37 57.548 37.02 57.595 37.06 C 57.635 37.107 57.655 37.163 57.655 37.23 L 57.655 43.77 C 57.655 43.837 57.635 43.89 57.595 43.93 C 57.548 43.977 57.492 44 57.425 44 L 56.935 44 Z" transform="matrix(1, 0, 0, 1, 0, 0)" style="fill: rgb(51, 51, 51); white-space: pre;"/>
    <path d="M 44.778 80.6 C 43.918 80.6 43.291 80.347 42.898 79.84 C 42.498 79.34 42.285 78.683 42.258 77.87 L 42.248 77.01 L 42.258 76.12 C 42.278 75.313 42.491 74.66 42.898 74.16 C 43.298 73.653 43.925 73.4 44.778 73.4 C 45.638 73.4 46.268 73.653 46.668 74.16 C 47.075 74.66 47.288 75.313 47.308 76.12 C 47.315 76.307 47.318 76.603 47.318 77.01 C 47.318 77.403 47.315 77.69 47.308 77.87 C 47.281 78.683 47.068 79.34 46.668 79.84 C 46.275 80.347 45.645 80.6 44.778 80.6 Z M 44.778 79.77 C 45.291 79.77 45.678 79.6 45.938 79.26 C 46.198 78.92 46.335 78.44 46.348 77.82 C 46.355 77.627 46.358 77.35 46.358 76.99 C 46.358 76.623 46.355 76.35 46.348 76.17 C 46.335 75.557 46.198 75.08 45.938 74.74 C 45.671 74.393 45.285 74.22 44.778 74.22 C 44.271 74.22 43.888 74.393 43.628 74.74 C 43.368 75.08 43.231 75.557 43.218 76.17 L 43.208 76.99 L 43.218 77.82 C 43.231 78.44 43.368 78.92 43.628 79.26 C 43.888 79.6 44.271 79.77 44.778 79.77 Z" transform="matrix(1, 0, 0, 1, 0, 0)" style="fill: rgb(51, 51, 51); white-space: pre;"/>
    <path d="M 67.581 80.5 C 67.514 80.5 67.461 80.477 67.421 80.43 C 67.374 80.39 67.351 80.337 67.351 80.27 L 67.351 79.97 C 67.351 79.817 67.434 79.67 67.601 79.53 L 69.781 77.36 C 70.274 76.94 70.614 76.597 70.801 76.33 C 70.988 76.063 71.081 75.78 71.081 75.48 C 71.081 75.087 70.971 74.777 70.751 74.55 C 70.531 74.33 70.211 74.22 69.791 74.22 C 69.391 74.22 69.074 74.337 68.841 74.57 C 68.608 74.803 68.464 75.117 68.411 75.51 C 68.398 75.583 68.364 75.64 68.311 75.68 C 68.258 75.72 68.204 75.74 68.151 75.74 L 67.671 75.74 C 67.611 75.74 67.561 75.72 67.521 75.68 C 67.481 75.64 67.461 75.593 67.461 75.54 C 67.474 75.187 67.571 74.843 67.751 74.51 C 67.924 74.183 68.184 73.917 68.531 73.71 C 68.878 73.497 69.298 73.39 69.791 73.39 C 70.538 73.39 71.101 73.583 71.481 73.97 C 71.854 74.363 72.041 74.86 72.041 75.46 C 72.041 75.88 71.941 76.257 71.741 76.59 C 71.534 76.93 71.214 77.287 70.781 77.66 L 68.811 79.66 L 71.961 79.66 C 72.034 79.66 72.091 79.68 72.131 79.72 C 72.171 79.76 72.191 79.817 72.191 79.89 L 72.191 80.27 C 72.191 80.337 72.168 80.39 72.121 80.43 C 72.081 80.477 72.028 80.5 71.961 80.5 L 67.581 80.5 Z" transform="matrix(1, 0, 0, 1, 0, 0)" style="fill: rgb(51, 51, 51); white-space: pre;"/>
    <path d="M 93.84 46.694 C 93.773 46.694 93.72 46.671 93.68 46.624 C 93.633 46.584 93.61 46.531 93.61 46.464 L 93.61 44.374 L 91.54 44.374 C 91.473 44.374 91.417 44.354 91.37 44.314 C 91.33 44.267 91.31 44.211 91.31 44.144 L 91.31 43.844 C 91.31 43.777 91.33 43.721 91.37 43.674 C 91.417 43.634 91.473 43.614 91.54 43.614 L 93.61 43.614 L 93.61 41.584 C 93.61 41.511 93.633 41.454 93.68 41.414 C 93.72 41.374 93.773 41.354 93.84 41.354 L 94.16 41.354 C 94.233 41.354 94.29 41.374 94.33 41.414 C 94.37 41.454 94.39 41.511 94.39 41.584 L 94.39 43.614 L 96.46 43.614 C 96.527 43.614 96.583 43.634 96.63 43.674 C 96.67 43.721 96.69 43.777 96.69 43.844 L 96.69 44.144 C 96.69 44.211 96.67 44.267 96.63 44.314 C 96.583 44.354 96.527 44.374 96.46 44.374 L 94.39 44.374 L 94.39 46.464 C 94.39 46.531 94.37 46.584 94.33 46.624 C 94.283 46.671 94.227 46.694 94.16 46.694 L 93.84 46.694 Z" transform="matrix(1, 0, 0, 1, 0, 0)" style="fill: rgb(51, 51, 51); white-space: pre;"/>
    <path d="M 92.5 75.4 C 92.433 75.4 92.38 75.38 92.34 75.34 C 92.293 75.3 92.27 75.247 92.27 75.18 L 92.27 74.82 C 92.27 74.753 92.293 74.697 92.34 74.65 C 92.38 74.61 92.433 74.59 92.5 74.59 L 95.5 74.59 C 95.567 74.59 95.62 74.61 95.66 74.65 C 95.707 74.697 95.73 74.753 95.73 74.82 L 95.73 75.18 C 95.73 75.247 95.707 75.3 95.66 75.34 C 95.62 75.38 95.567 75.4 95.5 75.4 L 92.5 75.4 Z" transform="matrix(1, 0, 0, 1, 0, 0)" style="fill: rgb(51, 51, 51); white-space: pre;"/>
  </g>
  <circle style="fill: rgb(0, 0, 0);" cx="67.828" cy="356" r="10"/>
  <rect x="36.141" y="347" width="11.5" height="18" style="fill: rgb(0, 0, 0);"/>
  <path d="M 23.712 358.866 C 23.632 358.866 23.565 358.839 23.512 358.786 C 23.458 358.739 23.432 358.676 23.432 358.596 L 23.432 351.456 C 23.432 351.376 23.458 351.306 23.512 351.246 C 23.565 351.193 23.632 351.166 23.712 351.166 L 24.962 351.166 C 25.142 351.166 25.272 351.246 25.352 351.406 L 27.242 354.796 L 29.152 351.406 C 29.232 351.246 29.362 351.166 29.542 351.166 L 30.792 351.166 C 30.872 351.166 30.938 351.193 30.992 351.246 C 31.045 351.306 31.072 351.376 31.072 351.456 L 31.072 358.596 C 31.072 358.676 31.045 358.739 30.992 358.786 C 30.938 358.839 30.872 358.866 30.792 358.866 L 29.392 358.866 C 29.318 358.866 29.255 358.839 29.202 358.786 C 29.142 358.733 29.112 358.669 29.112 358.596 L 29.112 354.586 L 27.932 356.766 C 27.832 356.933 27.702 357.016 27.542 357.016 L 26.952 357.016 C 26.805 357.016 26.675 356.933 26.562 356.766 L 25.392 354.586 L 25.392 358.596 C 25.392 358.676 25.362 358.739 25.302 358.786 C 25.248 358.839 25.182 358.866 25.102 358.866 L 23.712 358.866 Z" transform="matrix(1, 0, 0, 1, 0, 0)" style="fill: rgb(51, 51, 51); white-space: pre;"/>
  <path d="M 87.838 359.976 C 86.798 359.976 85.974 359.723 85.368 359.216 C 84.768 358.709 84.451 357.966 84.418 356.986 C 84.411 356.779 84.408 356.463 84.408 356.036 C 84.408 355.609 84.411 355.289 84.418 355.076 C 84.444 354.109 84.764 353.366 85.378 352.846 C 85.991 352.319 86.811 352.056 87.838 352.056 C 88.858 352.056 89.674 352.319 90.288 352.846 C 90.894 353.366 91.214 354.109 91.248 355.076 C 91.261 355.503 91.268 355.823 91.268 356.036 C 91.268 356.256 91.261 356.573 91.248 356.986 C 91.208 357.966 90.891 358.709 90.298 359.216 C 89.698 359.723 88.878 359.976 87.838 359.976 Z M 87.838 358.326 C 88.218 358.326 88.521 358.209 88.748 357.976 C 88.974 357.749 89.094 357.396 89.108 356.916 C 89.128 356.489 89.138 356.186 89.138 356.006 C 89.138 355.819 89.128 355.523 89.108 355.116 C 89.094 354.636 88.974 354.283 88.748 354.056 C 88.521 353.823 88.218 353.706 87.838 353.706 C 87.444 353.706 87.134 353.823 86.908 354.056 C 86.681 354.283 86.561 354.636 86.548 355.116 C 86.541 355.323 86.538 355.619 86.538 356.006 C 86.538 356.399 86.541 356.703 86.548 356.916 C 86.561 357.396 86.681 357.749 86.908 357.976 C 87.134 358.209 87.444 358.326 87.838 358.326 Z" transform="matrix(1, 0, 0, 1, 0, 0)" style="fill: rgb(51, 51, 51); white-space: pre;"/>
</svg>