<?xml version="1.0" encoding="utf-8"?>
<svg viewBox="0 0 450 380" xmlns="http://www.w3.org/2000/svg">
  <g id="layer1" style="">
    <rect width="450" height="380" style="fill: rgb(200, 200, 200);"/>
  </g>
  <path d="M 200.72 32.2 C 199.627 32.2 198.677 32.027 197.87 31.68 C 197.063 31.333 196.45 30.877 196.03 30.31 C 195.61 29.743 195.387 29.133 195.36 28.48 C 195.36 28.373 195.4 28.28 195.48 28.2 C 195.56 28.12 195.66 28.08 195.78 28.08 L 196.76 28.08 C 197 28.08 197.167 28.213 197.26 28.48 C 197.38 29.04 197.723 29.523 198.29 29.93 C 198.857 30.337 199.667 30.54 200.72 30.54 C 201.853 30.54 202.7 30.34 203.26 29.94 C 203.82 29.54 204.1 28.987 204.1 28.28 C 204.1 27.827 203.963 27.453 203.69 27.16 C 203.417 26.867 203.01 26.61 202.47 26.39 C 201.93 26.17 201.12 25.9 200.04 25.58 C 199.013 25.287 198.197 24.973 197.59 24.64 C 196.983 24.307 196.527 23.897 196.22 23.41 C 195.913 22.923 195.76 22.307 195.76 21.56 C 195.76 20.84 195.953 20.197 196.34 19.63 C 196.727 19.063 197.287 18.617 198.02 18.29 C 198.753 17.963 199.62 17.8 200.62 17.8 C 201.66 17.8 202.55 17.983 203.29 18.35 C 204.03 18.717 204.593 19.177 204.98 19.73 C 205.367 20.283 205.573 20.84 205.6 21.4 C 205.6 21.52 205.56 21.62 205.48 21.7 C 205.4 21.78 205.3 21.82 205.18 21.82 L 204.18 21.82 C 204.073 21.82 203.973 21.787 203.88 21.72 C 203.787 21.653 203.72 21.553 203.68 21.42 C 203.6 20.847 203.28 20.373 202.72 20 C 202.16 19.627 201.46 19.44 200.62 19.44 C 199.713 19.44 198.993 19.617 198.46 19.97 C 197.927 20.323 197.66 20.847 197.66 21.54 C 197.66 22.007 197.783 22.387 198.03 22.68 C 198.277 22.973 198.657 23.233 199.17 23.46 C 199.683 23.687 200.433 23.947 201.42 24.24 C 202.553 24.56 203.443 24.88 204.09 25.2 C 204.737 25.52 205.22 25.917 205.54 26.39 C 205.86 26.863 206.02 27.473 206.02 28.22 C 206.02 29.473 205.543 30.45 204.59 31.15 C 203.637 31.85 202.347 32.2 200.72 32.2 ZM 208.88 32 C 208.747 32 208.637 31.957 208.55 31.87 C 208.463 31.783 208.42 31.673 208.42 31.54 L 208.42 18.26 C 208.42 18.113 208.463 18 208.55 17.92 C 208.637 17.84 208.747 17.8 208.88 17.8 L 209.8 17.8 C 209.947 17.8 210.06 17.84 210.14 17.92 C 210.22 18 210.26 18.113 210.26 18.26 L 210.26 22.92 C 210.647 22.427 211.103 22.05 211.63 21.79 C 212.157 21.53 212.807 21.4 213.58 21.4 C 214.86 21.4 215.857 21.81 216.57 22.63 C 217.283 23.45 217.64 24.533 217.64 25.88 L 217.64 31.54 C 217.64 31.673 217.597 31.783 217.51 31.87 C 217.423 31.957 217.313 32 217.18 32 L 216.24 32 C 216.107 32 215.997 31.957 215.91 31.87 C 215.823 31.783 215.78 31.673 215.78 31.54 L 215.78 26 C 215.78 25.04 215.547 24.293 215.08 23.76 C 214.613 23.227 213.94 22.96 213.06 22.96 C 212.207 22.96 211.527 23.23 211.02 23.77 C 210.513 24.31 210.26 25.053 210.26 26 L 210.26 31.54 C 210.26 31.673 210.217 31.783 210.13 31.87 C 210.043 31.957 209.933 32 209.8 32 L 208.88 32 ZM 225.8 32.2 C 224.067 32.2 222.727 31.743 221.78 30.83 C 220.833 29.917 220.333 28.54 220.28 26.7 C 220.267 26.3 220.26 25.733 220.26 25 C 220.26 24.267 220.267 23.707 220.28 23.32 C 220.333 21.507 220.85 20.133 221.83 19.2 C 222.81 18.267 224.133 17.8 225.8 17.8 C 227.467 17.8 228.787 18.267 229.76 19.2 C 230.733 20.133 231.247 21.507 231.3 23.32 C 231.327 24.093 231.34 24.653 231.34 25 C 231.34 25.333 231.327 25.9 231.3 26.7 C 231.247 28.54 230.75 29.917 229.81 30.83 C 228.87 31.743 227.533 32.2 225.8 32.2 Z M 225.8 30.54 C 226.867 30.54 227.72 30.217 228.36 29.57 C 229 28.923 229.347 27.933 229.4 26.6 C 229.427 25.8 229.44 25.267 229.44 25 C 229.44 24.707 229.427 24.173 229.4 23.4 C 229.347 22.067 229 21.073 228.36 20.42 C 227.72 19.767 226.867 19.44 225.8 19.44 C 224.733 19.44 223.877 19.767 223.23 20.42 C 222.583 21.073 222.24 22.067 222.2 23.4 C 222.187 23.787 222.18 24.32 222.18 25 C 222.18 25.667 222.187 26.2 222.2 26.6 C 222.24 27.933 222.58 28.923 223.22 29.57 C 223.86 30.217 224.72 30.54 225.8 30.54 ZM 238.2 32.2 C 236.773 32.2 235.66 31.797 234.86 30.99 C 234.06 30.183 233.64 29.053 233.6 27.6 L 233.58 26.8 L 233.6 26 C 233.64 24.547 234.06 23.417 234.86 22.61 C 235.66 21.803 236.773 21.4 238.2 21.4 C 239.16 21.4 239.97 21.57 240.63 21.91 C 241.29 22.25 241.783 22.673 242.11 23.18 C 242.437 23.687 242.613 24.193 242.64 24.7 C 242.653 24.82 242.61 24.927 242.51 25.02 C 242.41 25.113 242.3 25.16 242.18 25.16 L 241.3 25.16 C 241.167 25.16 241.067 25.13 241 25.07 C 240.933 25.01 240.867 24.9 240.8 24.74 C 240.56 24.087 240.23 23.623 239.81 23.35 C 239.39 23.077 238.86 22.94 238.22 22.94 C 237.38 22.94 236.713 23.2 236.22 23.72 C 235.727 24.24 235.46 25.033 235.42 26.1 L 235.4 26.8 L 235.42 27.5 C 235.46 28.567 235.727 29.36 236.22 29.88 C 236.713 30.4 237.38 30.66 238.22 30.66 C 238.873 30.66 239.407 30.523 239.82 30.25 C 240.233 29.977 240.56 29.513 240.8 28.86 C 240.867 28.7 240.933 28.59 241 28.53 C 241.067 28.47 241.167 28.44 241.3 28.44 L 242.18 28.44 C 242.3 28.44 242.41 28.487 242.51 28.58 C 242.61 28.673 242.653 28.78 242.64 28.9 C 242.613 29.393 242.437 29.893 242.11 30.4 C 241.783 30.907 241.29 31.333 240.63 31.68 C 239.97 32.027 239.16 32.2 238.2 32.2 ZM 245.74 32 C 245.607 32 245.5 31.957 245.42 31.87 C 245.34 31.783 245.3 31.673 245.3 31.54 L 245.3 18.48 C 245.3 18.333 245.34 18.217 245.42 18.13 C 245.5 18.043 245.607 18 245.74 18 L 246.68 18 C 246.827 18 246.943 18.043 247.03 18.13 C 247.117 18.217 247.16 18.333 247.16 18.48 L 247.16 23.46 L 252.58 18.32 C 252.793 18.107 253.053 18 253.36 18 L 254.36 18 C 254.467 18 254.56 18.04 254.64 18.12 C 254.72 18.2 254.76 18.293 254.76 18.4 C 254.76 18.507 254.727 18.593 254.66 18.66 L 248.42 24.7 L 255.08 31.32 C 255.147 31.4 255.18 31.493 255.18 31.6 C 255.18 31.707 255.14 31.8 255.06 31.88 C 254.98 31.96 254.887 32 254.78 32 L 253.74 32 C 253.553 32 253.407 31.97 253.3 31.91 C 253.193 31.85 253.08 31.773 252.96 31.68 L 247.16 26.02 L 247.16 31.54 C 247.16 31.673 247.113 31.783 247.02 31.87 C 246.927 31.957 246.813 32 246.68 32 L 245.74 32 Z" transform="matrix(1, 0, 0, 1, 0, 0)" style="fill: rgb(51, 51, 51); white-space: pre;"/>
  <g id="Amp" style="">
    <rect x="353.354" y="51" width="50.646" height="196.569" style="fill: rgb(216, 216, 216); stroke: rgb(3, 3, 3);"/>
    <path d="M 365.93 62.067 C 365.863 62.067 365.807 62.044 365.76 61.997 C 365.713 61.95 365.69 61.894 365.69 61.827 L 365.71 61.697 L 368.69 53.927 C 368.757 53.754 368.883 53.667 369.07 53.667 L 369.84 53.667 C 370.033 53.667 370.163 53.754 370.23 53.927 L 373.2 61.697 L 373.23 61.827 C 373.23 61.894 373.203 61.95 373.15 61.997 C 373.097 62.044 373.037 62.067 372.97 62.067 L 372.41 62.067 C 372.33 62.067 372.263 62.044 372.21 61.997 C 372.157 61.957 372.123 61.914 372.11 61.867 L 371.44 60.137 L 367.47 60.137 L 366.81 61.867 C 366.743 62 366.643 62.067 366.51 62.067 L 365.93 62.067 Z M 369.46 54.827 L 367.81 59.137 L 371.1 59.137 L 369.46 54.827 ZM 374.646 62.067 C 374.566 62.067 374.499 62.04 374.446 61.987 C 374.393 61.934 374.366 61.867 374.366 61.787 L 374.366 56.107 C 374.366 56.027 374.393 55.96 374.446 55.907 C 374.499 55.854 374.566 55.827 374.646 55.827 L 375.146 55.827 C 375.226 55.827 375.289 55.854 375.336 55.907 C 375.383 55.96 375.406 56.027 375.406 56.107 L 375.406 56.507 C 375.839 55.974 376.426 55.707 377.166 55.707 C 378.046 55.707 378.669 56.074 379.036 56.807 C 379.229 56.474 379.503 56.207 379.856 56.007 C 380.209 55.807 380.606 55.707 381.046 55.707 C 381.706 55.707 382.243 55.93 382.656 56.377 C 383.076 56.824 383.286 57.474 383.286 58.327 L 383.286 61.787 C 383.286 61.867 383.259 61.934 383.206 61.987 C 383.153 62.04 383.086 62.067 383.006 62.067 L 382.486 62.067 C 382.406 62.067 382.343 62.04 382.296 61.987 C 382.243 61.934 382.216 61.867 382.216 61.787 L 382.216 58.427 C 382.216 57.787 382.083 57.33 381.816 57.057 C 381.556 56.784 381.209 56.647 380.776 56.647 C 380.389 56.647 380.059 56.787 379.786 57.067 C 379.506 57.354 379.366 57.807 379.366 58.427 L 379.366 61.787 C 379.366 61.867 379.343 61.934 379.296 61.987 C 379.243 62.04 379.176 62.067 379.096 62.067 L 378.566 62.067 C 378.486 62.067 378.419 62.04 378.366 61.987 C 378.313 61.934 378.286 61.867 378.286 61.787 L 378.286 58.427 C 378.286 57.8 378.149 57.347 377.876 57.067 C 377.603 56.787 377.259 56.647 376.846 56.647 C 376.466 56.647 376.136 56.787 375.856 57.067 C 375.583 57.347 375.446 57.797 375.446 58.417 L 375.446 61.787 C 375.446 61.867 375.419 61.934 375.366 61.987 C 375.313 62.04 375.246 62.067 375.166 62.067 L 374.646 62.067 ZM 385.312 64.347 C 385.232 64.347 385.165 64.324 385.112 64.277 C 385.059 64.23 385.032 64.16 385.032 64.067 L 385.032 56.107 C 385.032 56.014 385.059 55.944 385.112 55.897 C 385.165 55.85 385.232 55.827 385.312 55.827 L 385.812 55.827 C 385.899 55.827 385.969 55.85 386.022 55.897 C 386.069 55.944 386.092 56.014 386.092 56.107 L 386.092 56.627 C 386.552 56.014 387.212 55.707 388.072 55.707 C 388.912 55.707 389.542 55.974 389.962 56.507 C 390.382 57.04 390.602 57.717 390.622 58.537 C 390.635 58.624 390.642 58.76 390.642 58.947 C 390.642 59.134 390.635 59.27 390.622 59.357 C 390.602 60.17 390.382 60.847 389.962 61.387 C 389.542 61.92 388.912 62.187 388.072 62.187 C 387.212 62.187 386.562 61.884 386.122 61.277 L 386.122 64.067 C 386.122 64.147 386.099 64.214 386.052 64.267 C 385.999 64.32 385.932 64.347 385.852 64.347 L 385.312 64.347 Z M 387.842 61.247 C 388.415 61.247 388.835 61.067 389.102 60.707 C 389.369 60.347 389.512 59.877 389.532 59.297 C 389.539 59.217 389.542 59.1 389.542 58.947 C 389.542 57.414 388.975 56.647 387.842 56.647 C 387.282 56.647 386.859 56.83 386.572 57.197 C 386.292 57.57 386.142 58.01 386.122 58.517 C 386.115 58.604 386.112 58.76 386.112 58.987 C 386.112 59.207 386.115 59.36 386.122 59.447 C 386.142 59.94 386.299 60.364 386.592 60.717 C 386.879 61.07 387.295 61.247 387.842 61.247 Z" transform="matrix(1, 0, 0, 1, 0, 0)" style="fill: rgb(51, 51, 51); white-space: pre;"/>
    <circle style="fill: rgb(216, 0, 216);" cx="379.437" cy="93.824" r="14"/>
    <circle style="fill: rgb(216, 0, 216);" cx="379.771" cy="136.444" r="14"/>
    <circle style="fill: rgb(216, 0, 216);" cx="379.771" cy="176.973" r="14"/>
    <circle style="fill: rgb(216, 0, 216);" cx="379.437" cy="221.441" r="14"/>
  </g>
  <g id="Noise" style="" transform="matrix(1, 0, 0, 1, -148.515625, 0)">
    <rect x="353.354" y="51" width="50.646" height="118.482" style="fill: rgb(216, 216, 216); stroke: rgb(3, 3, 3);"/>
    <path d="M 366.77 62.067 C 366.69 62.067 366.627 62.04 366.58 61.987 C 366.533 61.934 366.51 61.867 366.51 61.787 L 366.51 53.957 C 366.51 53.87 366.533 53.8 366.58 53.747 C 366.627 53.694 366.69 53.667 366.77 53.667 L 367.3 53.667 C 367.38 53.667 367.44 53.684 367.48 53.717 C 367.52 53.75 367.56 53.79 367.6 53.837 L 371.62 60.027 L 371.62 53.957 C 371.62 53.87 371.647 53.8 371.7 53.747 C 371.747 53.694 371.81 53.667 371.89 53.667 L 372.43 53.667 C 372.523 53.667 372.593 53.694 372.64 53.747 C 372.693 53.8 372.72 53.87 372.72 53.957 L 372.72 61.777 C 372.72 61.857 372.693 61.927 372.64 61.987 C 372.593 62.04 372.53 62.067 372.45 62.067 L 371.91 62.067 C 371.77 62.067 371.673 62.01 371.62 61.897 L 367.6 55.767 L 367.6 61.787 C 367.6 61.867 367.573 61.934 367.52 61.987 C 367.467 62.04 367.4 62.067 367.32 62.067 L 366.77 62.067 ZM 377.196 62.187 C 376.316 62.187 375.639 61.94 375.166 61.447 C 374.686 60.947 374.433 60.287 374.406 59.467 L 374.386 58.947 L 374.406 58.427 C 374.433 57.607 374.689 56.947 375.176 56.447 C 375.663 55.954 376.336 55.707 377.196 55.707 C 378.063 55.707 378.736 55.954 379.216 56.447 C 379.703 56.947 379.963 57.607 379.996 58.427 C 380.009 58.607 380.016 58.78 380.016 58.947 C 380.016 59.114 380.009 59.287 379.996 59.467 C 379.963 60.287 379.709 60.947 379.236 61.447 C 378.756 61.94 378.076 62.187 377.196 62.187 Z M 377.196 61.287 C 377.709 61.287 378.116 61.124 378.416 60.797 C 378.716 60.477 378.879 60.014 378.906 59.407 C 378.913 59.327 378.916 59.174 378.916 58.947 C 378.916 58.72 378.913 58.567 378.906 58.487 C 378.879 57.88 378.716 57.417 378.416 57.097 C 378.116 56.77 377.709 56.607 377.196 56.607 C 376.683 56.607 376.276 56.77 375.976 57.097 C 375.676 57.417 375.516 57.88 375.496 58.487 L 375.486 58.947 L 375.496 59.407 C 375.516 60.014 375.676 60.477 375.976 60.797 C 376.276 61.124 376.683 61.287 377.196 61.287 ZM 381.71 54.647 C 381.63 54.647 381.563 54.624 381.51 54.577 C 381.457 54.524 381.43 54.457 381.43 54.377 L 381.43 53.747 C 381.43 53.667 381.457 53.6 381.51 53.547 C 381.563 53.494 381.63 53.467 381.71 53.467 L 382.42 53.467 C 382.5 53.467 382.567 53.494 382.62 53.547 C 382.68 53.6 382.71 53.667 382.71 53.747 L 382.71 54.377 C 382.71 54.457 382.68 54.524 382.62 54.577 C 382.567 54.624 382.5 54.647 382.42 54.647 L 381.71 54.647 Z M 381.81 62.067 C 381.73 62.067 381.663 62.04 381.61 61.987 C 381.557 61.934 381.53 61.867 381.53 61.787 L 381.53 56.107 C 381.53 56.027 381.557 55.96 381.61 55.907 C 381.663 55.854 381.73 55.827 381.81 55.827 L 382.33 55.827 C 382.41 55.827 382.477 55.854 382.53 55.907 C 382.583 55.96 382.61 56.027 382.61 56.107 L 382.61 61.787 C 382.61 61.867 382.583 61.934 382.53 61.987 C 382.477 62.04 382.41 62.067 382.33 62.067 L 381.81 62.067 ZM 386.55 62.187 C 385.997 62.187 385.53 62.097 385.15 61.917 C 384.77 61.737 384.487 61.53 384.3 61.297 C 384.12 61.064 384.03 60.874 384.03 60.727 C 384.03 60.647 384.057 60.584 384.11 60.537 C 384.163 60.49 384.223 60.467 384.29 60.467 L 384.79 60.467 C 384.843 60.467 384.883 60.477 384.91 60.497 C 384.937 60.51 384.973 60.547 385.02 60.607 C 385.207 60.827 385.413 61 385.64 61.127 C 385.867 61.26 386.173 61.327 386.56 61.327 C 386.993 61.327 387.34 61.247 387.6 61.087 C 387.86 60.927 387.99 60.694 387.99 60.387 C 387.99 60.187 387.933 60.027 387.82 59.907 C 387.707 59.787 387.52 59.68 387.26 59.587 C 387 59.487 386.613 59.38 386.1 59.267 C 385.407 59.12 384.917 58.9 384.63 58.607 C 384.337 58.32 384.19 57.95 384.19 57.497 C 384.19 57.197 384.28 56.91 384.46 56.637 C 384.633 56.364 384.893 56.14 385.24 55.967 C 385.593 55.794 386.01 55.707 386.49 55.707 C 386.99 55.707 387.42 55.79 387.78 55.957 C 388.133 56.124 388.4 56.32 388.58 56.547 C 388.76 56.774 388.85 56.96 388.85 57.107 C 388.85 57.18 388.823 57.24 388.77 57.287 C 388.717 57.34 388.657 57.367 388.59 57.367 L 388.13 57.367 C 388.017 57.367 387.937 57.32 387.89 57.227 C 387.757 57.08 387.643 56.964 387.55 56.877 C 387.457 56.79 387.323 56.717 387.15 56.657 C 386.97 56.597 386.75 56.567 386.49 56.567 C 386.097 56.567 385.797 56.65 385.59 56.817 C 385.377 56.984 385.27 57.2 385.27 57.467 C 385.27 57.64 385.317 57.784 385.41 57.897 C 385.497 58.01 385.663 58.117 385.91 58.217 C 386.157 58.317 386.523 58.42 387.01 58.527 C 387.77 58.687 388.31 58.914 388.63 59.207 C 388.943 59.507 389.1 59.887 389.1 60.347 C 389.1 60.694 389.003 61.007 388.81 61.287 C 388.61 61.567 388.317 61.787 387.93 61.947 C 387.543 62.107 387.083 62.187 386.55 62.187 ZM 392.976 62.187 C 392.163 62.187 391.513 61.934 391.026 61.427 C 390.533 60.92 390.263 60.227 390.216 59.347 L 390.206 58.937 L 390.216 58.537 C 390.263 57.677 390.533 56.99 391.026 56.477 C 391.513 55.964 392.163 55.707 392.976 55.707 C 393.856 55.707 394.539 55.987 395.026 56.547 C 395.506 57.107 395.746 57.867 395.746 58.827 L 395.746 59.047 C 395.746 59.127 395.723 59.19 395.676 59.237 C 395.623 59.29 395.556 59.317 395.476 59.317 L 391.306 59.317 L 391.306 59.427 C 391.333 59.947 391.493 60.39 391.786 60.757 C 392.086 61.124 392.479 61.307 392.966 61.307 C 393.339 61.307 393.646 61.234 393.886 61.087 C 394.119 60.94 394.296 60.787 394.416 60.627 C 394.489 60.534 394.546 60.477 394.586 60.457 C 394.626 60.437 394.693 60.427 394.786 60.427 L 395.316 60.427 C 395.389 60.427 395.453 60.447 395.506 60.487 C 395.559 60.527 395.586 60.577 395.586 60.637 C 395.586 60.817 395.476 61.03 395.256 61.277 C 395.043 61.524 394.736 61.737 394.336 61.917 C 393.943 62.097 393.489 62.187 392.976 62.187 Z M 391.306 58.507 L 394.656 58.507 L 394.656 58.467 C 394.656 57.907 394.506 57.45 394.206 57.097 C 393.899 56.744 393.489 56.567 392.976 56.567 C 392.456 56.567 392.049 56.744 391.756 57.097 C 391.456 57.45 391.306 57.907 391.306 58.467 L 391.306 58.507 Z" transform="matrix(1, 0, 0, 1, 0, 0)" style="fill: rgb(51, 51, 51); white-space: pre;"/>
    <circle style="fill: rgb(216, 0, 216);" cx="379.437" cy="93.824" r="14"/>
    <circle style="fill: rgb(216, 0, 216);" cx="379.437" cy="137.27" r="14"/>
  </g>
  <g id="Achannel" style="">
    <circle style="fill: rgb(0, 0, 0);" cx="17" cy="61" r="10"/>
    <circle style="fill: rgb(0, 0, 0);" cx="430" cy="61" r="10"/>
  </g>
  <g id="Bchannel" style="" transform="matrix(1, 0, 0, 1, 0, 32)">
    <circle style="fill: rgb(0, 0, 0);" cx="17" cy="61" r="10"/>
    <circle style="fill: rgb(0, 0, 0);" cx="430" cy="61" r="10"/>
  </g>
  <g id="Cchannel" style="" transform="matrix(1, 0, 0, 1, 0, 64)">
    <circle style="fill: rgb(0, 0, 0);" cx="17" cy="61" r="10"/>
    <circle style="fill: rgb(0, 0, 0);" cx="430" cy="61" r="10"/>
  </g>
  <g id="Dchannel" style="" transform="matrix(1, 0, 0, 1, 0, 96)">
    <circle style="fill: rgb(0, 0, 0);" cx="17" cy="61" r="10"/>
    <circle style="fill: rgb(0, 0, 0);" cx="430" cy="61" r="10"/>
  </g>
  <g id="Echannel" style="" transform="matrix(1, 0, 0, 1, 0, 128)">
    <circle style="fill: rgb(0, 0, 0);" cx="17" cy="61" r="10"/>
    <circle style="fill: rgb(0, 0, 0);" cx="430" cy="61" r="10"/>
  </g>
  <g id="Fchannel" style="" transform="matrix(1, 0, 0, 1, 0, 160)">
    <circle style="fill: rgb(0, 0, 0);" cx="17" cy="61" r="10"/>
    <circle style="fill: rgb(0, 0, 0);" cx="430" cy="61" r="10"/>
  </g>
  <g id="Gchannel" style="" transform="matrix(1, 0, 0, 1, 0, 192)">
    <circle style="fill: rgb(0, 0, 0);" cx="17" cy="61" r="10"/>
    <circle style="fill: rgb(0, 0, 0);" cx="430" cy="61" r="10"/>
  </g>
  <g id="Hchannel" style="" transform="matrix(1, 0, 0, 1, 0, 224)">
    <circle style="fill: rgb(0, 0, 0);" cx="17" cy="61" r="10"/>
    <circle style="fill: rgb(0, 0, 0);" cx="430" cy="61" r="10"/>
  </g>
  <g id="Oscillator" style="" transform="matrix(1, 0, 0, 1, -295.786194, 0)">
    <rect x="353.354" y="51" width="50.197" height="221.835" style="fill: rgb(216, 216, 216); stroke: rgb(3, 3, 3);"/>
    <path d="M 369 62.067 C 368.793 62.067 368.65 61.964 368.57 61.757 L 365.87 54.037 L 365.85 53.907 C 365.85 53.84 365.873 53.784 365.92 53.737 C 365.973 53.69 366.033 53.667 366.1 53.667 L 366.67 53.667 C 366.763 53.667 366.833 53.69 366.88 53.737 C 366.933 53.777 366.97 53.827 366.99 53.887 L 369.36 60.747 L 371.75 53.887 C 371.763 53.827 371.797 53.777 371.85 53.737 C 371.903 53.69 371.973 53.667 372.06 53.667 L 372.64 53.667 C 372.7 53.667 372.757 53.69 372.81 53.737 C 372.857 53.784 372.88 53.84 372.88 53.907 C 372.88 53.96 372.877 54.004 372.87 54.037 L 370.17 61.757 C 370.09 61.964 369.943 62.067 369.73 62.067 L 369 62.067 ZM 377.106 62.187 C 376.039 62.187 375.229 61.897 374.676 61.317 C 374.116 60.737 373.816 59.944 373.776 58.937 C 373.769 58.717 373.766 58.364 373.766 57.877 C 373.766 57.384 373.769 57.024 373.776 56.797 C 373.816 55.79 374.116 54.997 374.676 54.417 C 375.229 53.837 376.039 53.547 377.106 53.547 C 377.813 53.547 378.416 53.674 378.916 53.927 C 379.409 54.18 379.783 54.51 380.036 54.917 C 380.289 55.324 380.426 55.76 380.446 56.227 C 380.446 56.294 380.423 56.35 380.376 56.397 C 380.323 56.444 380.259 56.467 380.186 56.467 L 379.586 56.467 C 379.506 56.467 379.443 56.447 379.396 56.407 C 379.349 56.367 379.313 56.297 379.286 56.197 C 379.153 55.584 378.906 55.154 378.546 54.907 C 378.193 54.654 377.713 54.527 377.106 54.527 C 375.713 54.527 374.986 55.304 374.926 56.857 C 374.919 57.077 374.916 57.41 374.916 57.857 C 374.916 58.304 374.919 58.644 374.926 58.877 C 374.986 60.417 375.713 61.187 377.106 61.187 C 377.706 61.187 378.186 61.064 378.546 60.817 C 378.906 60.57 379.153 60.144 379.286 59.537 C 379.313 59.437 379.349 59.367 379.396 59.327 C 379.443 59.287 379.506 59.267 379.586 59.267 L 380.186 59.267 C 380.259 59.267 380.323 59.29 380.376 59.337 C 380.423 59.384 380.446 59.44 380.446 59.507 C 380.426 59.974 380.289 60.41 380.036 60.817 C 379.783 61.224 379.409 61.554 378.916 61.807 C 378.416 62.06 377.813 62.187 377.106 62.187 ZM 385.086 62.187 C 384.046 62.187 383.239 61.914 382.666 61.367 C 382.099 60.82 381.799 59.994 381.766 58.887 C 381.759 58.647 381.756 58.307 381.756 57.867 C 381.756 57.427 381.759 57.09 381.766 56.857 C 381.799 55.77 382.109 54.947 382.696 54.387 C 383.289 53.827 384.086 53.547 385.086 53.547 C 386.086 53.547 386.876 53.827 387.456 54.387 C 388.043 54.947 388.353 55.77 388.386 56.857 C 388.399 57.324 388.406 57.66 388.406 57.867 C 388.406 58.067 388.399 58.407 388.386 58.887 C 388.353 59.994 388.053 60.82 387.486 61.367 C 386.926 61.914 386.126 62.187 385.086 62.187 Z M 385.086 61.187 C 385.726 61.187 386.236 60.994 386.616 60.607 C 387.003 60.22 387.213 59.627 387.246 58.827 C 387.259 58.347 387.266 58.027 387.266 57.867 C 387.266 57.694 387.259 57.374 387.246 56.907 C 387.213 56.107 387.003 55.51 386.616 55.117 C 386.236 54.724 385.726 54.527 385.086 54.527 C 384.446 54.527 383.929 54.724 383.536 55.117 C 383.149 55.51 382.946 56.107 382.926 56.907 C 382.913 57.14 382.906 57.46 382.906 57.867 C 382.906 58.267 382.913 58.587 382.926 58.827 C 382.946 59.627 383.149 60.22 383.536 60.607 C 383.916 60.994 384.433 61.187 385.086 61.187 Z" transform="matrix(1, 0, 0, 1, 0, 0)" style="fill: rgb(51, 51, 51); white-space: pre;"/>
    <circle style="fill: rgb(216, 0, 216);" cx="379.437" cy="93.824" r="14"/>
    <circle style="fill: rgb(216, 0, 216);" cx="379.437" cy="137.27" r="14"/>
    <circle style="fill: rgb(216, 0, 216);" cx="379.437" cy="178.011" r="14"/>
    <circle style="fill: rgb(216, 0, 216);" cx="379.437" cy="215.946" r="14"/>
  </g>
  <g id="VCF" style="" transform="matrix(1, 0, 0, 1, -78.649834, 0)">
    <rect x="353.354" y="51" width="50.646" height="171.419" style="fill: rgb(216, 216, 216); stroke: rgb(3, 3, 3);"/>
    <path d="M 369 62.067 C 368.793 62.067 368.65 61.964 368.57 61.757 L 365.87 54.037 L 365.85 53.907 C 365.85 53.84 365.873 53.784 365.92 53.737 C 365.973 53.69 366.033 53.667 366.1 53.667 L 366.67 53.667 C 366.763 53.667 366.833 53.69 366.88 53.737 C 366.933 53.777 366.97 53.827 366.99 53.887 L 369.36 60.747 L 371.75 53.887 C 371.763 53.827 371.797 53.777 371.85 53.737 C 371.903 53.69 371.973 53.667 372.06 53.667 L 372.64 53.667 C 372.7 53.667 372.757 53.69 372.81 53.737 C 372.857 53.784 372.88 53.84 372.88 53.907 C 372.88 53.96 372.877 54.004 372.87 54.037 L 370.17 61.757 C 370.09 61.964 369.943 62.067 369.73 62.067 L 369 62.067 ZM 377.106 62.187 C 376.039 62.187 375.229 61.897 374.676 61.317 C 374.116 60.737 373.816 59.944 373.776 58.937 C 373.769 58.717 373.766 58.364 373.766 57.877 C 373.766 57.384 373.769 57.024 373.776 56.797 C 373.816 55.79 374.116 54.997 374.676 54.417 C 375.229 53.837 376.039 53.547 377.106 53.547 C 377.813 53.547 378.416 53.674 378.916 53.927 C 379.409 54.18 379.783 54.51 380.036 54.917 C 380.289 55.324 380.426 55.76 380.446 56.227 C 380.446 56.294 380.423 56.35 380.376 56.397 C 380.323 56.444 380.259 56.467 380.186 56.467 L 379.586 56.467 C 379.506 56.467 379.443 56.447 379.396 56.407 C 379.349 56.367 379.313 56.297 379.286 56.197 C 379.153 55.584 378.906 55.154 378.546 54.907 C 378.193 54.654 377.713 54.527 377.106 54.527 C 375.713 54.527 374.986 55.304 374.926 56.857 C 374.919 57.077 374.916 57.41 374.916 57.857 C 374.916 58.304 374.919 58.644 374.926 58.877 C 374.986 60.417 375.713 61.187 377.106 61.187 C 377.706 61.187 378.186 61.064 378.546 60.817 C 378.906 60.57 379.153 60.144 379.286 59.537 C 379.313 59.437 379.349 59.367 379.396 59.327 C 379.443 59.287 379.506 59.267 379.586 59.267 L 380.186 59.267 C 380.259 59.267 380.323 59.29 380.376 59.337 C 380.423 59.384 380.446 59.44 380.446 59.507 C 380.426 59.974 380.289 60.41 380.036 60.817 C 379.783 61.224 379.409 61.554 378.916 61.807 C 378.416 62.06 377.813 62.187 377.106 62.187 ZM 382.346 62.067 C 382.266 62.067 382.203 62.04 382.156 61.987 C 382.109 61.934 382.086 61.867 382.086 61.787 L 382.086 53.957 C 382.086 53.87 382.109 53.8 382.156 53.747 C 382.203 53.694 382.266 53.667 382.346 53.667 L 387.216 53.667 C 387.303 53.667 387.373 53.694 387.426 53.747 C 387.479 53.8 387.506 53.87 387.506 53.957 L 387.506 54.397 C 387.506 54.477 387.479 54.544 387.426 54.597 C 387.373 54.65 387.303 54.677 387.216 54.677 L 383.196 54.677 L 383.196 57.517 L 386.976 57.517 C 387.063 57.517 387.133 57.544 387.186 57.597 C 387.239 57.65 387.266 57.717 387.266 57.797 L 387.266 58.247 C 387.266 58.327 387.239 58.394 387.186 58.447 C 387.126 58.5 387.056 58.527 386.976 58.527 L 383.196 58.527 L 383.196 61.787 C 383.196 61.867 383.169 61.934 383.116 61.987 C 383.056 62.04 382.986 62.067 382.906 62.067 L 382.346 62.067 Z" transform="matrix(1, 0, 0, 1, 0, 0)" style="fill: rgb(51, 51, 51); white-space: pre;"/>
    <circle style="fill: rgb(216, 0, 216);" cx="379.437" cy="93.824" r="14"/>
    <circle style="fill: rgb(216, 0, 216);" cx="379.437" cy="137.27" r="14"/>
    <circle style="fill: rgb(216, 0, 216);" cx="379.437" cy="176.794" r="14"/>
  </g>
  <g id="g-1" style="" transform="matrix(1, 0, 0, 1, -222.204346, 0)">
    <rect x="353.354" y="51" width="50.197" height="221.835" style="fill: rgb(216, 216, 216); stroke: rgb(3, 3, 3);"/>
    <path d="M 369 62.067 C 368.793 62.067 368.65 61.964 368.57 61.757 L 365.87 54.037 L 365.85 53.907 C 365.85 53.84 365.873 53.784 365.92 53.737 C 365.973 53.69 366.033 53.667 366.1 53.667 L 366.67 53.667 C 366.763 53.667 366.833 53.69 366.88 53.737 C 366.933 53.777 366.97 53.827 366.99 53.887 L 369.36 60.747 L 371.75 53.887 C 371.763 53.827 371.797 53.777 371.85 53.737 C 371.903 53.69 371.973 53.667 372.06 53.667 L 372.64 53.667 C 372.7 53.667 372.757 53.69 372.81 53.737 C 372.857 53.784 372.88 53.84 372.88 53.907 C 372.88 53.96 372.877 54.004 372.87 54.037 L 370.17 61.757 C 370.09 61.964 369.943 62.067 369.73 62.067 L 369 62.067 ZM 377.106 62.187 C 376.039 62.187 375.229 61.897 374.676 61.317 C 374.116 60.737 373.816 59.944 373.776 58.937 C 373.769 58.717 373.766 58.364 373.766 57.877 C 373.766 57.384 373.769 57.024 373.776 56.797 C 373.816 55.79 374.116 54.997 374.676 54.417 C 375.229 53.837 376.039 53.547 377.106 53.547 C 377.813 53.547 378.416 53.674 378.916 53.927 C 379.409 54.18 379.783 54.51 380.036 54.917 C 380.289 55.324 380.426 55.76 380.446 56.227 C 380.446 56.294 380.423 56.35 380.376 56.397 C 380.323 56.444 380.259 56.467 380.186 56.467 L 379.586 56.467 C 379.506 56.467 379.443 56.447 379.396 56.407 C 379.349 56.367 379.313 56.297 379.286 56.197 C 379.153 55.584 378.906 55.154 378.546 54.907 C 378.193 54.654 377.713 54.527 377.106 54.527 C 375.713 54.527 374.986 55.304 374.926 56.857 C 374.919 57.077 374.916 57.41 374.916 57.857 C 374.916 58.304 374.919 58.644 374.926 58.877 C 374.986 60.417 375.713 61.187 377.106 61.187 C 377.706 61.187 378.186 61.064 378.546 60.817 C 378.906 60.57 379.153 60.144 379.286 59.537 C 379.313 59.437 379.349 59.367 379.396 59.327 C 379.443 59.287 379.506 59.267 379.586 59.267 L 380.186 59.267 C 380.259 59.267 380.323 59.29 380.376 59.337 C 380.423 59.384 380.446 59.44 380.446 59.507 C 380.426 59.974 380.289 60.41 380.036 60.817 C 379.783 61.224 379.409 61.554 378.916 61.807 C 378.416 62.06 377.813 62.187 377.106 62.187 ZM 385.086 62.187 C 384.046 62.187 383.239 61.914 382.666 61.367 C 382.099 60.82 381.799 59.994 381.766 58.887 C 381.759 58.647 381.756 58.307 381.756 57.867 C 381.756 57.427 381.759 57.09 381.766 56.857 C 381.799 55.77 382.109 54.947 382.696 54.387 C 383.289 53.827 384.086 53.547 385.086 53.547 C 386.086 53.547 386.876 53.827 387.456 54.387 C 388.043 54.947 388.353 55.77 388.386 56.857 C 388.399 57.324 388.406 57.66 388.406 57.867 C 388.406 58.067 388.399 58.407 388.386 58.887 C 388.353 59.994 388.053 60.82 387.486 61.367 C 386.926 61.914 386.126 62.187 385.086 62.187 Z M 385.086 61.187 C 385.726 61.187 386.236 60.994 386.616 60.607 C 387.003 60.22 387.213 59.627 387.246 58.827 C 387.259 58.347 387.266 58.027 387.266 57.867 C 387.266 57.694 387.259 57.374 387.246 56.907 C 387.213 56.107 387.003 55.51 386.616 55.117 C 386.236 54.724 385.726 54.527 385.086 54.527 C 384.446 54.527 383.929 54.724 383.536 55.117 C 383.149 55.51 382.946 56.107 382.926 56.907 C 382.913 57.14 382.906 57.46 382.906 57.867 C 382.906 58.267 382.913 58.587 382.926 58.827 C 382.946 59.627 383.149 60.22 383.536 60.607 C 383.916 60.994 384.433 61.187 385.086 61.187 Z" transform="matrix(1, 0, 0, 1, 0, 0)" style="fill: rgb(51, 51, 51); white-space: pre;"/>
    <circle style="fill: rgb(216, 0, 216);" cx="379.437" cy="93.824" r="14"/>
    <circle style="fill: rgb(216, 0, 216);" cx="379.437" cy="137.27" r="14"/>
    <circle style="fill: rgb(216, 0, 216);" cx="379.437" cy="178.011" r="14"/>
    <circle style="fill: rgb(216, 0, 216);" cx="379.437" cy="215.946" r="14"/>
  </g>
</svg>